# xmcd
#
# Track frame offsets: 
#        150
#        15915
#        27304
#        42902
#        54885
#        71669
#        86565
#        100890
#        113347
#        125760
#
# Disc length: 1918 seconds
#
# Revision: 0
# Processed by: cddbd v1.5.2PL0 Copyright (c) Steve Scherf et al.
# Submitted via: ExactAudioCopy v0.99pb5
#
DISCID=74077c0a
DTITLE=Al Desjarlais - Winds of Change
DYEAR=2010
DGENRE=
TTITLE0=Winds of Change
TTITLE1=Batoche
TTITLE2=Lord I Hope This Day is Good
TTITLE3=Gizelle Waltz
TTITLE4=Hard Hearted Woman
TTITLE5=Just Between an Old Memory and Me
TTITLE6=Apple Blossom Waltz
TTITLE7=Waltz of the Wind
TTITLE8=If We Make it Through December
TTITLE9=Spanish Melody
EXTD=
EXTT0=
EXTT1=
EXTT2=
EXTT3=
EXTT4=
EXTT5=
EXTT6=
EXTT7=
EXTT8=
EXTT9=
PLAYORDER=
